<svg width="26" height="25" viewBox="0 0 26 25" fill="none" xmlns="http://www.w3.org/2000/svg">
<path d="M6.21875 25V8.64844H1.13281V25H6.21875ZM3.64844 6.46094C5.28906 6.46094 6.60156 5.09375 6.60156 3.45312C6.60156 1.86719 5.28906 0.554688 3.64844 0.554688C2.0625 0.554688 0.75 1.86719 0.75 3.45312C0.75 5.09375 2.0625 6.46094 3.64844 6.46094ZM25.1953 25H25.25V16.0312C25.25 11.6562 24.2656 8.26562 19.125 8.26562C16.6641 8.26562 15.0234 9.63281 14.3125 10.8906H14.2578V8.64844H9.39062V25H14.4766V16.9062C14.4766 14.7734 14.8594 12.75 17.4844 12.75C20.1094 12.75 20.1641 15.1562 20.1641 17.0703V25H25.1953Z" fill="#C26912"/>
</svg>
