<svg width="47" height="52" viewBox="0 0 47 52" fill="none" xmlns="http://www.w3.org/2000/svg">
<path fill-rule="evenodd" clip-rule="evenodd" d="M16.9975 38.809C12.6291 31.5396 7.10786 21.32 7.10786 16.0669C7.10786 7.20571 14.2898 0 23.1217 0C31.9536 0 39.1355 7.20571 39.1355 16.0669C39.1355 21.32 33.6142 31.5396 29.2459 38.809C34.4287 39.2016 46.2222 40.6131 46.2222 45.2931C46.2222 49.8988 34.2489 52 23.1111 52C11.9839 52 0 49.8988 0 45.2931C0.0105782 40.6131 11.8147 39.2016 16.9975 38.809ZM36.9249 16.0669C36.9249 8.42612 30.7267 2.20735 23.1217 2.20735C15.5061 2.20735 9.30791 8.42612 9.30791 16.0669C9.30791 22.742 19.9062 39.4882 23.1217 44.4122C26.3371 39.4882 36.9249 22.742 36.9249 16.0669ZM44.0222 45.2824C44.0222 46.8106 36.6499 49.782 23.1217 49.782C9.59349 49.782 2.22121 46.8212 2.21063 45.2824C2.21063 44.0939 7.07612 41.5682 18.2879 40.9208C20.3928 44.3273 21.9794 46.7575 22.2015 47.0229C22.9101 47.8612 23.7457 47.4049 24.0313 47.0229C24.2429 46.7363 25.84 44.3273 27.9449 40.9208C39.1567 41.5682 44.0222 44.1045 44.0222 45.2824Z" fill="white"/>
<path fill-rule="evenodd" clip-rule="evenodd" d="M23.1111 8.66675C19.3878 8.66675 16.3704 11.8998 16.3704 15.889C16.3704 19.8782 19.3878 23.1112 23.1111 23.1112C26.8344 23.1112 29.8519 19.8782 29.8519 15.889C29.8519 11.8998 26.8344 8.66675 23.1111 8.66675ZM23.1111 10.9463C25.6581 10.9463 27.7243 13.1601 27.7243 15.889C27.7243 18.6179 25.6581 20.8316 23.1111 20.8316C20.5642 20.8316 18.4979 18.6179 18.4979 15.889C18.4979 13.1601 20.5642 10.9463 23.1111 10.9463Z" fill="white"/>
</svg>
