<svg width="30" height="21" viewBox="0 0 30 21" fill="none" xmlns="http://www.w3.org/2000/svg">
<path d="M29.2734 3.33594C28.9453 2.02344 27.9062 0.984375 26.6484 0.65625C24.2969 0 15 0 15 0C15 0 5.64844 0 3.29688 0.65625C2.03906 0.984375 1 2.02344 0.671875 3.33594C0.015625 5.63281 0.015625 10.5547 0.015625 10.5547C0.015625 10.5547 0.015625 15.4219 0.671875 17.7734C1 19.0859 2.03906 20.0703 3.29688 20.3984C5.64844 21 15 21 15 21C15 21 24.2969 21 26.6484 20.3984C27.9062 20.0703 28.9453 19.0859 29.2734 17.7734C29.9297 15.4219 29.9297 10.5547 29.9297 10.5547C29.9297 10.5547 29.9297 5.63281 29.2734 3.33594ZM11.9375 14.9844V6.125L19.7031 10.5547L11.9375 14.9844Z" fill="#C26912"/>
</svg>
